<svg width="24" height="24" viewBox="0 0 24 24" fill="none" xmlns="http://www.w3.org/2000/svg">
<path d="M16.1793 7.72115C14.047 7.72115 12.5216 8.50539 11.801 8.97151C11.0809 8.50517 9.55506 7.72095 7.42233 7.72095C4.45507 7.72095 2.65374 9.24259 2.57833 9.30771C2.42089 9.44326 2.33032 9.6407 2.33032 9.84848V21.0681C2.33032 21.3465 2.49553 21.5967 2.7483 21.7131C3.00168 21.8302 3.30182 21.7856 3.51363 21.6047C3.52558 21.5943 4.72497 20.5957 7.42197 20.5957C10.0953 20.5957 11.2975 21.577 11.3297 21.6041C11.462 21.7205 11.6302 21.7812 11.8002 21.7812C11.8345 21.7812 11.8687 21.7752 11.9029 21.7707C11.9668 21.7615 12.0301 21.7466 12.0908 21.7191C12.1561 21.69 12.2152 21.6518 12.2672 21.606L12.2699 21.6043C12.2817 21.5943 13.4807 20.5953 16.1783 20.5953C18.8506 20.5953 20.0526 21.5764 20.0858 21.6041C20.2186 21.7205 20.3866 21.7812 20.5564 21.7812C20.6549 21.7812 20.7538 21.7609 20.8474 21.7193C21.1041 21.6047 21.2697 21.3493 21.2697 21.0679L21.2701 9.84878C21.2701 9.64098 21.1798 9.44393 21.0225 9.30841C20.9481 9.24333 19.1464 7.72115 16.1793 7.72115Z" fill="#111111"/>
<rect x="11.2" y="8.1665" width="1.2" height="15" fill="#F7F7F7"/>
<path d="M12.1524 0.282484L12.1524 0.282466C11.9275 0.188634 11.6741 0.1887 11.449 0.282405L11.4488 0.282484L0.76881 4.74137L0.768754 4.7414C0.303366 4.93586 0.0838424 5.47051 0.277681 5.93608L0.277796 5.93636C0.472283 6.40154 1.00666 6.62096 1.47234 6.42744L1.47264 6.42732L11.8009 2.11545L22.1292 6.4273C22.2437 6.47517 22.3634 6.49789 22.4807 6.49789C22.8379 6.49789 23.1773 6.28695 23.3239 5.93661L23.324 5.93623C23.5178 5.47046 23.2981 4.9356 22.8324 4.74137C22.8324 4.74136 22.8324 4.74135 22.8323 4.74134L12.1524 0.282484Z" fill="#111111" stroke="#111111" stroke-width="0.4"/>
</svg>
