<svg width="20" height="24" viewBox="0 0 20 24" fill="none" xmlns="http://www.w3.org/2000/svg">
<path d="M2.41667 23.25C1.82083 23.25 1.31058 23.0054 0.885917 22.5163C0.461972 22.0263 0.25 21.4375 0.25 20.75V3.25C0.25 2.5625 0.461972 1.97375 0.885917 1.48375C1.31058 0.994583 1.82083 0.75 2.41667 0.75H14.3333L19.75 7V20.75C19.75 21.4375 19.538 22.0263 19.1141 22.5163C18.6894 23.0054 18.1792 23.25 17.5833 23.25H2.41667ZM2.41667 20.75H17.5833V8.25H13.25V3.25H2.41667V20.75ZM4.58333 18.25H15.4167V15.75H4.58333V18.25ZM4.58333 8.25H10V5.75H4.58333V8.25ZM4.58333 13.25H15.4167V10.75H4.58333V13.25ZM2.41667 3.25V8.25V3.25V20.75V3.25Z" fill="black"/>
</svg>
