<?xml version="1.0" standalone="no"?>
<!DOCTYPE svg PUBLIC "-//W3C//DTD SVG 20010904//EN"
 "http://www.w3.org/TR/2001/REC-SVG-20010904/DTD/svg10.dtd">
<svg version="1.0" xmlns="http://www.w3.org/2000/svg"
 width="512.000000pt" height="512.000000pt" viewBox="0 0 512.000000 512.000000"
 preserveAspectRatio="xMidYMid meet">

<g transform="translate(0.000000,512.000000) scale(0.100000,-0.100000)"
fill="#000000" stroke="none">
<path d="M2770 5114 c-536 -37 -1046 -258 -1414 -614 -335 -324 -536 -708
-596 -1142 l-12 -87 -68 -49 c-379 -277 -622 -689 -671 -1138 -38 -349 59
-734 259 -1032 l38 -57 -147 -364 c-81 -200 -151 -382 -154 -404 -20 -114 79
-227 198 -227 37 0 81 18 536 219 l383 169 76 -24 c262 -82 532 -110 780 -83
531 57 980 304 1284 704 25 33 55 75 66 94 20 33 27 36 129 59 59 13 154 39
209 58 l102 34 488 -216 c572 -253 623 -274 661 -274 53 0 101 20 141 60 50
50 69 111 55 178 -13 57 -413 1048 -448 1108 -29 49 -107 94 -165 94 -55 0
-133 -44 -166 -93 -23 -34 -28 -53 -29 -102 0 -54 12 -89 119 -353 65 -161
117 -295 114 -298 -3 -2 -165 66 -359 152 -415 183 -396 179 -564 117 -997
-366 -2077 110 -2402 1061 -47 139 -66 260 -67 431 0 170 10 254 51 400 73
263 196 469 413 686 157 158 280 247 463 337 282 139 534 196 857 196 323 0
575 -57 857 -196 183 -90 306 -179 463 -337 217 -217 340 -423 413 -686 50
-182 56 -262 44 -655 -3 -97 50 -166 147 -192 84 -22 185 22 220 97 24 50 36
128 43 285 19 436 -124 877 -406 1245 -64 84 -242 266 -330 337 -319 257 -699
421 -1117 483 -102 15 -392 26 -494 19z m-1980 -2424 c101 -453 398 -891 805
-1187 314 -228 699 -372 1104 -413 58 -5 106 -12 108 -14 2 -2 -27 -29 -64
-60 -338 -282 -782 -398 -1228 -320 -49 8 -149 35 -221 60 -83 28 -150 44
-179 44 -39 0 -93 -20 -288 -105 -132 -58 -242 -103 -245 -101 -2 3 30 92 73
198 72 180 77 197 73 254 -3 51 -10 68 -40 110 -73 97 -128 184 -167 261 -127
256 -154 548 -74 823 47 166 165 372 276 488 46 47 48 46 67 -38z"/>
<path d="M2052 3279 c-48 -14 -109 -80 -123 -131 -23 -89 12 -182 88 -229 57
-36 154 -34 210 3 62 41 88 90 88 168 0 77 -26 127 -85 166 -43 29 -125 39
-178 23z"/>
<path d="M2852 3279 c-48 -14 -109 -80 -123 -131 -23 -89 12 -182 88 -229 57
-36 154 -34 210 3 62 41 88 90 88 168 0 77 -26 127 -85 166 -43 29 -125 39
-178 23z"/>
<path d="M3652 3279 c-48 -14 -109 -80 -123 -131 -23 -89 12 -182 88 -229 57
-36 154 -34 210 3 62 41 88 90 88 168 0 77 -26 127 -85 166 -43 29 -125 39
-178 23z"/>
</g>
</svg>
