<svg width="18" height="22" viewBox="0 0 18 22" fill="none" xmlns="http://www.w3.org/2000/svg">
<path d="M9.00008 11.0002C11.5314 11.0002 13.5834 8.94813 13.5834 6.41683C13.5834 3.88552 11.5314 1.8335 9.00008 1.8335C6.46878 1.8335 4.41675 3.88552 4.41675 6.41683C4.41675 8.94813 6.46878 11.0002 9.00008 11.0002Z" stroke="black" stroke-width="1.83333"/>
<path d="M13.5833 12.8335H13.906C14.5761 12.8337 15.2232 13.0786 15.7255 13.5222C16.2278 13.9658 16.5509 14.5775 16.634 15.2425L16.9924 18.1062C17.0246 18.3641 17.0016 18.626 16.9249 18.8744C16.8482 19.1228 16.7195 19.3521 16.5475 19.547C16.3754 19.7419 16.1638 19.8979 15.9268 20.0048C15.6898 20.1116 15.4328 20.1669 15.1728 20.1668H2.82714C2.56716 20.1669 2.31014 20.1116 2.07313 20.0048C1.83613 19.8979 1.62457 19.7419 1.45249 19.547C1.2804 19.3521 1.15174 19.1228 1.07503 18.8744C0.998319 18.626 0.97532 18.3641 1.00756 18.1062L1.36506 15.2425C1.4482 14.5772 1.77152 13.9652 2.27424 13.5216C2.77695 13.0779 3.42442 12.8332 4.09489 12.8335H4.41664" stroke="black" stroke-width="1.83333" stroke-linecap="round" stroke-linejoin="round"/>
</svg>
