<svg width="20" height="20" viewBox="0 0 20 20" fill="none" xmlns="http://www.w3.org/2000/svg">
<path d="M9.89515 17.45L9.89496 17.4498L3.67928 10.7845L3.67929 10.7845L3.67751 10.7827C3.30775 10.3902 3.01223 9.92147 2.80953 9.40244C2.60682 8.88338 2.50138 8.32537 2.50001 7.76077C2.49865 7.19617 2.60138 6.63755 2.8016 6.11732C3.0018 5.59713 3.29508 5.12666 3.66299 4.73215C4.03083 4.33771 4.46581 4.02713 4.94194 3.81642C5.41797 3.60576 5.92676 3.49859 6.43942 3.50001C6.95208 3.50144 7.46038 3.61144 7.93543 3.82477C8.41059 4.03815 8.84412 4.35119 9.2101 4.74773L9.21009 4.74773L9.21186 4.74962L9.63433 5.20265L10 5.59477L10.3657 5.20265L10.7881 4.74963L10.7899 4.74773C11.1559 4.35119 11.5894 4.03815 12.0646 3.82477C12.5396 3.61144 13.0479 3.50144 13.5606 3.50001C14.0732 3.49859 14.582 3.60576 15.0581 3.81642C15.5342 4.02713 15.9692 4.33771 16.337 4.73215C16.7049 5.12666 16.9982 5.59713 17.1984 6.11732C17.3986 6.63755 17.5014 7.19616 17.5 7.76077C17.4986 8.32537 17.3932 8.88338 17.1905 9.40244C16.9878 9.92147 16.6922 10.3902 16.3225 10.7826L16.3207 10.7845L10.105 17.4498L10.1049 17.45C10.0877 17.4683 10.0693 17.4809 10.0517 17.4887C10.0341 17.4965 10.0167 17.5 10 17.5C9.98331 17.5 9.96587 17.4965 9.94833 17.4887C9.93067 17.4809 9.91226 17.4683 9.89515 17.45Z" stroke="#C0C8CB"/>
<path d="M9.52929 17.7908C9.59108 17.8571 9.66446 17.9097 9.74523 17.9456C9.82599 17.9815 9.91257 18 10 18C10.0874 18 10.174 17.9815 10.2548 17.9456C10.3355 17.9097 10.4089 17.8571 10.4707 17.7908L16.6864 11.1256C17.1012 10.6853 17.4308 10.1616 17.6562 9.58433C17.8816 9.0071 17.9985 8.38778 18 7.76198C18.0015 7.13617 17.8877 6.51622 17.665 5.93774C17.4424 5.35925 17.1153 4.83365 16.7027 4.39114C16.29 3.94863 15.7999 3.59793 15.2604 3.35919C14.7209 3.12046 14.1428 2.99839 13.5592 3.00002C12.9756 3.00164 12.398 3.12692 11.8597 3.36865C11.3214 3.61039 10.833 3.96381 10.4225 4.40862L10 4.86164L9.57753 4.40862C9.16701 3.96381 8.67856 3.61039 8.14026 3.36865C7.60195 3.12692 7.02441 3.00164 6.44081 3.00002C5.85721 2.99839 5.27907 3.12046 4.7396 3.35919C4.20013 3.59793 3.70998 3.94863 3.29732 4.39114C2.88465 4.83365 2.5576 5.35925 2.33497 5.93774C2.11233 6.51622 1.9985 7.13617 2.00001 7.76198C2.00153 8.38778 2.11836 9.0071 2.34379 9.58433C2.56922 10.1616 2.89881 10.6853 3.31361 11.1256L9.52929 17.7908Z" fill="#133529"/>
</svg>
