<svg width="24" height="33" viewBox="0 0 24 33" fill="none" xmlns="http://www.w3.org/2000/svg">
<path d="M23.4656 11.2477C23.4656 11.2477 23.7462 14.6932 20.0553 16.3803C19.3359 16.7449 19.4597 17.1716 19.4597 17.1716C19.4597 17.1716 19.7866 22.0572 17.0541 24.455C17.0541 24.455 16.3756 24.7615 16.3397 26.401L16.3237 26.6473C16.2929 27.1224 16.2777 27.6731 16.7049 27.8833C16.7049 27.8833 17.8192 28.3801 18.3615 29.0036C18.3615 29.0036 19.3978 29.758 19.1502 31.0791C19.1502 31.0791 19.1824 31.8176 16.2567 32.0422C16.2567 32.0422 9.01859 32.609 5.78831 32.0422C5.78831 32.0422 4.84491 31.8616 4.18493 31.5798C4.10591 31.5461 4.01282 31.5302 3.91251 31.5271C3.09393 31.502 2.2825 32.0436 1.51012 31.7713C1.06537 31.6146 0.646739 31.2469 0.551014 30.4384C0.405675 29.2107 1.02123 28.7381 1.46222 28.5583C1.72752 28.45 2.09309 28.4203 2.10223 28.1339C2.10461 28.0593 2.09607 27.967 2.07144 27.8529C1.9402 27.2452 0.959597 19.5417 8.01199 17.1835C10.8547 16.1478 12.5448 14.721 12.5448 14.721C12.5448 14.721 13.1255 14.2269 13.1663 13.668C13.1972 13.2452 12.8751 12.9978 13.1092 11.7836C13.3039 10.7732 13.4946 9.44794 12.4915 9.21848C11.1011 8.74948 8.18904 5.91699 8.22123 2.24691C8.22123 2.24691 8.0838 1.06847 10.0264 1.408C10.0264 1.408 10.9785 1.66958 11.9691 2.3024C11.9691 2.3024 11.7945 0.928432 12.3764 0.347137C12.9583 -0.234157 14.3426 0.85577 14.3426 0.85577C14.3426 0.85577 17.0528 2.58116 17.5431 6.25916C17.5431 6.25916 17.6137 7.2183 17.5146 7.45478C17.4156 7.69126 18.2328 7.74675 18.2328 7.74675C18.2328 7.74675 21.4536 7.79563 23.4631 11.2451L23.4656 11.2477Z" fill="white"/>
</svg>
