<svg width="24" height="24" viewBox="0 0 24 24" fill="none" xmlns="http://www.w3.org/2000/svg">
<path d="M17 8.33333H18C19.1046 8.33333 20 9.14348 20 10.1429V19.1905C20 20.1899 19.1046 21 18 21H6C4.89543 21 4 20.1899 4 19.1905V10.1429C4 9.14348 4.89543 8.33333 6 8.33333H7C7.55228 8.33333 8 8.73841 8 9.2381C8 9.73778 7.55228 10.1429 7 10.1429H6V19.1905H18V10.1429H17C16.4477 10.1429 16 9.73778 16 9.2381C16 8.73841 16.4477 8.33333 17 8.33333ZM11.2403 2.3164C11.4237 2.12273 11.696 2 12 2C12.304 2 12.5763 2.12273 12.7597 2.3164L15.5355 4.82786C15.9261 5.1812 15.9261 5.75406 15.5355 6.10739C15.145 6.46072 14.5118 6.46072 14.1213 6.10739L13 5.09287V13.7619C13 14.2616 12.5523 14.6667 12 14.6667C11.4477 14.6667 11 14.2616 11 13.7619V5.09287L9.87868 6.10739C9.48815 6.46072 8.85499 6.46072 8.46447 6.10739C8.07394 5.75406 8.07394 5.1812 8.46447 4.82786L11.2403 2.3164Z" fill="#333333"/>
</svg>
