<svg width="16" height="16" viewBox="0 0 16 16" fill="none" xmlns="http://www.w3.org/2000/svg">
<path fill-rule="evenodd" clip-rule="evenodd" d="M13.1216 8.84164C13.0651 8.87757 12.9953 8.90029 12.9232 8.9104C12.8948 8.91518 12.8661 8.91767 12.8372 8.91767H12.8232C12.5866 8.92142 12.3494 8.92017 12.1125 8.91892L12.1123 8.91892C11.994 8.91829 11.8757 8.91767 11.7575 8.91767H9.57422H7.03475H4.94574H4.56231V9.95498V11.5386V12.8365V13.2632H4.86558H5.06385C5.3699 13.2632 5.5967 13.5842 5.61037 13.9649C5.62403 14.3439 5.34942 14.6667 5.06385 14.6667H4.83193H3.85862H2.80384C2.49779 14.6667 2.27099 14.3456 2.25733 13.9649C2.24366 13.5859 2.51828 13.2632 2.80384 13.2632H3.19051H3.43615V12.555V11.174V9.54111V7.78289V6.04861V4.46497V3.16708V2.28868V1.96349C3.43615 1.78199 3.5215 1.62755 3.6522 1.52646C3.75638 1.41023 3.90676 1.33585 4.07014 1.33585H4.08422C4.32076 1.33209 4.55793 1.33334 4.79489 1.3346C4.91329 1.33522 5.03164 1.33585 5.14983 1.33585H7.33316H9.87263H11.9616H12.8372C13.0357 1.33585 13.2229 1.44424 13.3257 1.61598C13.4327 1.799 13.4172 2.00029 13.3257 2.1847C13.2928 2.25061 13.2601 2.31653 13.2275 2.38244L13.2273 2.38283L13.2273 2.383C13.1945 2.44922 13.1617 2.51544 13.1286 2.58167C12.9853 2.86972 12.8423 3.15812 12.6994 3.44651L12.6986 3.4481L12.6978 3.44968C12.5548 3.73808 12.4119 4.02648 12.2685 4.31453C12.1363 4.5832 12.0033 4.8511 11.87 5.11937L11.9265 5.23373C12.1403 5.66975 12.3549 6.105 12.5697 6.54064L12.5699 6.54101L12.7866 6.98067C12.8756 7.16155 12.965 7.34278 13.0544 7.52401L13.0544 7.52405C13.1445 7.7067 13.2346 7.88934 13.3243 8.07164C13.3483 8.12055 13.3666 8.16929 13.3789 8.21851C13.3909 8.26225 13.3982 8.30786 13.4003 8.35459C13.4036 8.42591 13.3906 8.49475 13.3649 8.55835C13.321 8.6774 13.2261 8.77402 13.1216 8.84164Z" fill="#1C3429"/>
</svg>
