<svg width="16" height="16" viewBox="0 0 16 16" fill="none" xmlns="http://www.w3.org/2000/svg">
<path d="M4.57419 4.57418C5.10429 2.66785 6.60675 1.18629 8.52034 0.683067C10.4341 0.17984 12.471 0.730828 13.8701 2.12985C15.2692 3.52906 15.8202 5.56599 15.3169 7.47966C14.8137 9.39325 13.3321 10.8957 11.4258 11.4258C10.8957 13.3321 9.39325 14.8137 7.47967 15.3169C5.56591 15.8202 3.52899 15.2692 2.12986 13.8702C0.730828 12.4709 0.179819 10.434 0.683088 8.52034C1.18631 6.60675 2.66787 5.10428 4.57419 4.57418ZM13.5647 6.06451C13.5633 4.97178 13.0695 3.93776 12.2205 3.24975C11.3715 2.56175 10.2576 2.29289 9.18838 2.51785C8.11894 2.74298 7.20796 3.43794 6.70828 4.40966C7.95291 4.55497 9.11213 5.11595 9.99809 6.00208C10.8843 6.88809 11.4452 8.04731 11.5905 9.2919C12.1845 8.98762 12.6831 8.52522 13.0314 7.9558C13.3797 7.38639 13.5642 6.73195 13.5647 6.06451ZM6.31872 6.31849H6.31855C6.38049 7.18998 6.75464 8.00997 7.37248 8.62765C7.99015 9.24549 8.81014 9.61963 9.68163 9.68158C9.6197 8.81009 9.24554 7.9901 8.6277 7.37243C8.01003 6.75459 7.19004 6.38045 6.31855 6.31849H6.31872ZM6.06457 13.5645C6.73201 13.564 7.38649 13.3795 7.95586 13.0312C8.52527 12.6829 8.98767 12.1843 9.29195 11.5903C8.04732 11.445 6.8881 10.884 6.00214 9.99787C5.11596 9.11187 4.55502 7.95265 4.40973 6.70806C3.43801 7.20774 2.74305 8.11872 2.51792 9.18816C2.29296 10.2574 2.5618 11.3712 3.24982 12.2203C3.93784 13.0694 4.97184 13.5631 6.06457 13.5645Z" fill="#1C3429"/>
</svg>
