<svg width="155" height="27" viewBox="0 0 155 27" fill="none" xmlns="http://www.w3.org/2000/svg">
<path d="M85.6443 24.336L87.1923 21.168H100.476L102.06 24.336C103.356 27.144 107.712 24.912 106.236 22.104L96.0843 1.908C95.1843 -0.0719991 92.5923 0 91.6203 1.908L81.2883 22.104C80.5683 23.616 81.2883 24.912 82.4403 25.56C83.7363 25.812 85.0683 25.56 85.6443 24.336ZM89.4243 16.416L93.8523 7.524L97.9203 16.416H89.4243Z" fill="#FF7267"/>
<path d="M121.018 25.812C124.006 25.812 127.03 25.344 129.55 23.004C130.81 21.744 130.522 20.412 129.946 19.62C129.298 18.756 127.75 18.324 126.634 19.188C124.978 20.664 123.07 21.492 121.018 21.492C115.438 21.492 112.81 17.388 112.81 12.924C112.81 8.532 115.474 4.608 121.018 4.608C123.07 4.608 124.582 5.04 126.058 6.588C126.922 7.452 128.398 7.56 129.37 6.696C130.342 5.688 130.234 4.104 129.262 3.204C126.634 0.936001 124.15 0 121.018 0C112.738 0 108.382 5.976 108.382 12.924C108.382 19.872 112.306 25.812 121.018 25.812Z" fill="#FF7267"/>
<path d="M141.158 23.328C141.158 26.532 145.91 26.46 145.91 23.328V5.148H151.886C155.09 5.148 155.09 0.539999 151.886 0.539999H134.858C131.726 0.539999 131.726 5.148 134.858 5.148H141.158V23.328Z" fill="#FF7267"/>
<path d="M13.636 26.064C16.624 26.064 19.648 25.596 22.168 23.256C23.428 21.996 23.14 20.664 22.564 19.872C21.916 19.008 20.368 18.576 19.252 19.44C17.596 20.916 15.688 21.744 13.636 21.744C8.056 21.744 5.428 17.64 5.428 13.176C5.428 8.784 8.092 4.86 13.636 4.86C15.688 4.86 17.2 5.292 18.676 6.84C19.54 7.704 21.016 7.812 21.988 6.948C22.96 5.94 22.852 4.356 21.88 3.456C19.252 1.188 16.768 0.251999 13.636 0.251999C5.356 0.251999 1 6.228 1 13.176C1 20.124 4.924 26.064 13.636 26.064Z" fill="#95D3E6"/>
<path d="M52.5677 13.212C52.5677 4.68 45.9797 0.324 39.6797 0C33.0197 0 26.1077 4.356 26.1077 13.212C26.1077 22.032 33.0197 26.46 39.6797 26.172C45.9797 26.172 52.5677 21.744 52.5677 13.212ZM47.8517 13.212C47.8517 18.864 43.4237 21.744 39.2837 21.744C35.2517 21.744 30.8597 18.864 30.8597 13.212C30.8597 7.524 35.2517 4.68 39.2837 4.68C43.4237 4.68 47.8517 7.524 47.8517 13.212Z" fill="#95D3E6"/>
<path d="M56.7568 23.328C56.7568 24.912 57.9088 25.812 59.2048 25.812C60.5008 25.812 61.4728 24.912 61.4728 23.328V9.432L73.3888 24.552C74.4328 25.524 75.0448 25.812 76.3048 25.812C77.2408 25.524 78.2128 24.912 78.2128 23.328V3.06C78.2128 1.872 76.9528 0.575999 75.6568 0.575999C74.4328 0.575999 73.3888 1.872 73.3888 3.06V17.028L61.4728 2.124C60.5008 1.188 60.2128 0.864 58.9168 0.864C57.0448 0.864 56.7568 2.124 56.7568 3.42V23.328Z" fill="#95D3E6"/>
</svg>
