<?xml version="1.0" encoding="utf-8"?>
<!-- Generator: Adobe Illustrator 24.1.0, SVG Export Plug-In . SVG Version: 6.00 Build 0)  -->
<svg version="1.1" id="Layer_1" xmlns="http://www.w3.org/2000/svg" xmlns:xlink="http://www.w3.org/1999/xlink" x="0px" y="0px"
	 viewBox="0 0 1024 1024" style="enable-background:new 0 0 1024 1024;" xml:space="preserve">
<style type="text/css">
	.st0{display:none;}
	.st1{display:inline;fill:#FFFCF5;}
	.st2{fill:none;}
	.st3{fill:#95D3E6;}
	.st4{fill:#EE7A81;}
	.st5{fill:#A06B7A;}
</style>
<g>
	<g class="st0">
		<path class="st1" d="M844,1024H180C80.6,1024,0,943.4,0,844V180C0,80.6,80.6,0,180,0h664c99.4,0,180,80.6,180,180v664
			C1024,943.4,943.4,1024,844,1024z"/>
	</g>
	<g>
		<path class="st2" d="M601.5,456.5c-0.2,0-0.4-0.1-0.6-0.1c-1.2-0.2-2.4-0.5-3.5-0.9c-0.2,0-0.4-0.1-0.6-0.2
			c-1.2-0.4-2.3-0.8-3.5-1.2c-0.2-0.1-0.3-0.1-0.5-0.2c-1.2-0.5-2.3-1-3.4-1.6c-0.1-0.1-0.3-0.1-0.4-0.2c-1.1-0.6-2.2-1.3-3.3-2
			c-0.1-0.1-0.2-0.1-0.3-0.2c-1.1-0.8-2.2-1.6-3.3-2.4c0,0,0,0,0,0c-1-0.9-2.1-1.8-3-2.7c0,0,0,0,0,0s0,0,0,0c-1-1-1.9-2-2.7-3
			c0,0,0,0,0,0c-0.9-1-1.7-2.1-2.4-3.2c-0.1-0.1-0.1-0.2-0.2-0.3c-0.7-1.1-1.4-2.1-2-3.3c-0.1-0.1-0.1-0.3-0.2-0.4
			c-0.6-1.1-1.1-2.2-1.6-3.4c-0.1-0.2-0.1-0.3-0.2-0.5c-0.5-1.1-0.9-2.3-1.2-3.4c-0.1-0.2-0.1-0.4-0.2-0.6c-0.3-1.2-0.6-2.3-0.9-3.5
			c0-0.2-0.1-0.4-0.1-0.6c-0.2-1.2-0.4-2.4-0.5-3.6c0-0.2,0-0.4,0-0.6c-0.1-0.8-0.2-1.6-0.2-2.4c-0.7-38.5-16.1-74.7-43.4-101.9
			c-57.8-57.8-151.7-57.8-209.5,0s-57.8,151.7,0,209.5c26.7,26.7,62.2,42.1,100,43.3c11.8,0.4,22.3,5.6,29.6,13.6
			c8,7.4,13.2,17.9,13.6,29.7c1.2,37.8,16.6,73.3,43.3,100c57.8,57.8,151.7,57.8,209.5,0s57.8-151.7,0-209.5
			c-27.2-27.2-63.4-42.6-101.9-43.4c-0.8,0-1.6-0.1-2.4-0.2c-0.2,0-0.4,0-0.6,0C603.9,456.9,602.7,456.7,601.5,456.5z"/>
		<path class="st3" d="M567.6,423.2c0.2,1.2,0.5,2.4,0.9,3.5C568.2,425.5,567.9,424.4,567.6,423.2z"/>
		<path class="st3" d="M582.2,447.6C582.2,447.6,582.2,447.6,582.2,447.6C582.2,447.6,582.2,447.6,582.2,447.6z"/>
		<path class="st3" d="M592.8,453.9c0.2,0.1,0.3,0.1,0.5,0.2C593.1,454.1,593,454,592.8,453.9z"/>
		<path class="st3" d="M589,452.2c0.1,0.1,0.3,0.1,0.4,0.2C589.3,452.3,589.2,452.2,589,452.2z"/>
		<path class="st3" d="M574,438.5c0.8,1.1,1.6,2.2,2.4,3.2C575.5,440.7,574.7,439.6,574,438.5z"/>
		<path class="st3" d="M585.5,450c0.1,0.1,0.2,0.1,0.3,0.2C585.7,450.1,585.6,450.1,585.5,450z"/>
		<path class="st3" d="M570.1,431.2c0.5,1.1,1,2.3,1.6,3.4C571.1,433.5,570.5,432.4,570.1,431.2z"/>
		<path class="st3" d="M567,418.9c0.1,1.2,0.3,2.4,0.5,3.6C567.3,421.3,567.1,420.1,567,418.9z"/>
		<path class="st3" d="M596.7,455.4c0.2,0.1,0.4,0.1,0.6,0.2C597.1,455.5,596.9,455.4,596.7,455.4z"/>
		<path class="st3" d="M571.8,435c0.6,1.1,1.3,2.2,2,3.3C573.1,437.2,572.4,436.1,571.8,435z"/>
		<path class="st3" d="M568.7,427.3c0.4,1.2,0.8,2.3,1.2,3.4C569.4,429.6,569,428.4,568.7,427.3z"/>
		<path class="st3" d="M579.2,444.8c-1-1-1.9-2-2.8-3C577.3,442.8,578.2,443.8,579.2,444.8C579.2,444.8,579.2,444.8,579.2,444.8z"/>
		<path class="st3" d="M413.8,569.3c11.5-0.4,22,3.9,29.8,11.1c-7.4-8-17.9-13.2-29.6-13.6c-37.8-1.2-73.3-16.6-100-43.3
			c-57.8-57.8-57.8-151.7,0-209.5c57.8-57.8,151.7-57.8,209.5,0c27.2,27.2,42.6,63.4,43.4,101.9c0,0.8,0.1,1.6,0.2,2.4
			c-0.1-1.3-0.2-2.7-0.1-4c0.5-23.2,19.7-41.7,42.9-41.3c12.7,0.2,25.2,1.6,37.5,3.8c-8.4-46.1-30.5-88.6-64.2-122.4
			c-90.6-90.6-238-90.6-328.6,0s-90.6,238,0,328.6c33.7,33.7,76.2,55.8,122.3,64.2c-2.1-11.3-3.3-22.8-3.7-34.5
			C372.3,589.5,390.6,570,413.8,569.3z"/>
		<path class="st3" d="M600.8,456.4c0.2,0,0.4,0.1,0.6,0.1C601.2,456.4,601,456.4,600.8,456.4z"/>
		<path class="st3" d="M605.7,457c-0.2,0-0.4,0-0.6,0C605.3,457,605.5,457,605.7,457z"/>
		<path class="st4" d="M568.5,426.7c0.1,0.2,0.1,0.4,0.2,0.6C568.6,427.1,568.5,426.9,568.5,426.7z"/>
		<path class="st4" d="M597.3,455.5c1.2,0.3,2.3,0.6,3.5,0.9C599.6,456.1,598.5,455.8,597.3,455.5z"/>
		<path class="st4" d="M569.9,430.7c0.1,0.2,0.1,0.3,0.2,0.5C570,431,569.9,430.9,569.9,430.7z"/>
		<path class="st4" d="M769.6,441c-33.7-33.7-76.2-55.8-122.3-64.2c2.2,12.3,3.5,24.8,3.8,37.5c0.5,23.2-18,42.5-41.3,42.9
			c-1.3,0-2.7,0-4-0.1c0.8,0.1,1.6,0.1,2.4,0.2c38.5,0.7,74.7,16.1,101.9,43.4c57.8,57.8,57.8,151.7,0,209.5s-151.7,57.8-209.5,0
			c-26.7-26.7-42.1-62.2-43.3-100c-0.4-11.8-5.6-22.3-13.6-29.7c7.2,7.8,11.5,18.3,11.1,29.8c-0.7,23.2-20.2,41.5-43.4,40.7
			c-11.7-0.4-23.2-1.6-34.5-3.7c8.4,46.1,30.6,88.7,64.2,122.3c90.6,90.6,238,90.6,328.6,0C860.2,679,860.2,531.6,769.6,441z"/>
		<path class="st4" d="M567.5,422.5c0,0.2,0.1,0.4,0.1,0.6C567.6,423,567.6,422.8,567.5,422.5z"/>
		<path class="st4" d="M567,418.3c0,0.2,0,0.4,0,0.6C567,418.7,567,418.5,567,418.3z"/>
		<path class="st4" d="M571.6,434.5c0.1,0.1,0.1,0.3,0.2,0.4C571.8,434.8,571.7,434.7,571.6,434.5z"/>
		<path class="st4" d="M582.2,447.6c-1.1-0.9-2.1-1.8-3-2.8c0,0,0,0,0,0C580.2,445.8,581.2,446.7,582.2,447.6z"/>
		<path class="st4" d="M585.8,450.2c1.1,0.7,2.2,1.4,3.3,2C587.9,451.6,586.8,450.9,585.8,450.2z"/>
		<path class="st4" d="M576.4,441.7C576.4,441.8,576.4,441.8,576.4,441.7C576.4,441.8,576.4,441.8,576.4,441.7z"/>
		<path class="st4" d="M593.3,454.1c1.1,0.5,2.3,0.9,3.5,1.2C595.6,455,594.4,454.6,593.3,454.1z"/>
		<path class="st4" d="M601.5,456.5c1.2,0.2,2.4,0.4,3.6,0.5C603.9,456.9,602.7,456.7,601.5,456.5z"/>
		<path class="st4" d="M582.2,447.6c1,0.9,2.1,1.7,3.3,2.4C584.4,449.3,583.3,448.5,582.2,447.6z"/>
		<path class="st4" d="M573.8,438.2c0.1,0.1,0.1,0.2,0.2,0.3C573.9,438.4,573.8,438.3,573.8,438.2z"/>
		<path class="st4" d="M589.4,452.4c1.1,0.6,2.2,1.1,3.4,1.6C591.7,453.5,590.5,452.9,589.4,452.4z"/>
		<path class="st5" d="M566.9,414.3c0,1.4,0,2.7,0.1,4c0,0.2,0,0.4,0,0.6c0.1,1.2,0.3,2.4,0.5,3.6c0,0.2,0.1,0.4,0.1,0.6
			c0.2,1.2,0.5,2.4,0.9,3.5c0.1,0.2,0.1,0.4,0.2,0.6c0.3,1.2,0.8,2.3,1.2,3.4c0.1,0.2,0.1,0.3,0.2,0.5c0.5,1.1,1,2.3,1.6,3.4
			c0.1,0.1,0.1,0.3,0.2,0.4c0.6,1.1,1.3,2.2,2,3.3c0.1,0.1,0.1,0.2,0.2,0.3c0.8,1.1,1.6,2.2,2.4,3.2c0,0,0,0,0,0
			c0.9,1.1,1.8,2.1,2.8,3c1,1,2,1.9,3,2.8c0,0,0,0,0,0c1,0.9,2.1,1.7,3.3,2.4c0.1,0.1,0.2,0.1,0.3,0.2c1.1,0.7,2.2,1.4,3.3,2
			c0.1,0.1,0.3,0.1,0.4,0.2c1.1,0.6,2.2,1.1,3.4,1.6c0.2,0.1,0.3,0.1,0.5,0.2c1.1,0.5,2.3,0.9,3.5,1.2c0.2,0.1,0.4,0.1,0.6,0.2
			c1.2,0.3,2.3,0.6,3.5,0.9c0.2,0,0.4,0.1,0.6,0.1c1.2,0.2,2.4,0.4,3.6,0.5c0.2,0,0.4,0,0.6,0c1.3,0.1,2.7,0.2,4,0.1
			c23.2-0.5,41.7-19.6,41.3-42.9c-0.2-12.7-1.6-25.2-3.8-37.5c-12.3-2.2-24.8-3.5-37.5-3.8C586.5,372.5,567.3,391,566.9,414.3z"/>
		<path class="st5" d="M454.7,610.2c0.4-11.5-3.9-22-11.1-29.8c-7.8-7.2-18.4-11.5-29.8-11.1c-23.2,0.7-41.5,20.2-40.7,43.4
			c0.4,11.7,1.6,23.2,3.7,34.5c11.3,2.1,22.9,3.3,34.5,3.7C434.5,651.7,454,633.4,454.7,610.2z"/>
	</g>
</g>
</svg>
